<?xml version="1.0" standalone="no"?>
<!DOCTYPE svg PUBLIC "-//W3C//DTD SVG 20010904//EN"
 "http://www.w3.org/TR/2001/REC-SVG-20010904/DTD/svg10.dtd">
<svg version="1.0" xmlns="http://www.w3.org/2000/svg"
 width="512.000000pt" height="512.000000pt" viewBox="0 0 512.000000 512.000000"
 preserveAspectRatio="xMidYMid meet">

<g transform="translate(0.000000,512.000000) scale(0.100000,-0.100000)"
fill="#000000" stroke="none">
<path d="M1635 4406 c-124 -31 -230 -117 -287 -233 -31 -64 -33 -74 -33 -178
0 -98 3 -116 26 -166 l27 -56 -226 -390 -225 -391 -70 -11 c-97 -16 -172 -54
-240 -122 -168 -168 -168 -430 0 -598 68 -68 143 -106 240 -122 l70 -11 225
-391 226 -390 -27 -56 c-23 -50 -26 -68 -26 -166 0 -104 2 -114 33 -178 142
-290 543 -329 725 -71 l31 44 456 0 456 0 31 -44 c91 -129 265 -198 418 -166
215 44 355 225 343 443 -3 60 -11 97 -30 138 l-26 56 226 390 225 391 70 11
c97 16 172 54 240 122 168 168 168 430 0 598 -68 68 -143 106 -240 122 l-70
11 -225 391 -226 390 26 56 c37 81 43 204 12 295 -23 70 -89 167 -137 202
-199 147 -471 110 -606 -82 l-31 -44 -457 0 -457 0 -21 34 c-86 139 -279 213
-446 172z m156 -329 c87 -59 48 -187 -58 -187 -88 0 -136 96 -82 164 39 50 88
58 140 23z m1672 -17 c62 -69 17 -170 -76 -170 -107 0 -145 128 -57 188 46 31
94 24 133 -18z m-452 -258 l37 -77 -172 -297 -171 -298 -50 8 c-27 4 -70 7
-95 7 -25 0 -67 -3 -95 -7 l-50 -8 -171 298 -172 297 37 77 36 77 415 0 415 0
36 -77z m-1215 -236 c0 0 78 -136 172 -300 l173 -299 -25 -26 c-32 -35 -80
-116 -101 -173 l-18 -48 -349 0 -348 0 -9 23 c-5 12 -25 44 -45 70 l-36 47
207 358 207 358 85 -4 c47 -2 86 -5 87 -6z m1907 -346 l207 -360 -36 -47 c-20
-26 -40 -58 -45 -70 l-9 -23 -348 0 -349 0 -18 48 c-21 57 -69 138 -101 173
l-24 26 172 301 173 301 75 3 c41 2 80 5 85 6 6 1 103 -160 218 -358z m-1037
-415 c17 -7 50 -29 72 -49 142 -129 102 -364 -75 -442 -49 -22 -156 -22 -205
0 -192 84 -221 334 -53 462 69 52 177 64 261 29z m-1722 -149 c93 -39 87 -164
-8 -196 -64 -21 -136 33 -136 100 0 36 30 81 63 95 40 18 41 18 81 1z m3311 0
c35 -15 65 -59 65 -96 0 -67 -72 -121 -136 -100 -94 31 -101 156 -10 196 39
17 40 17 81 0z m-2240 -303 c21 -58 69 -139 101 -174 l25 -26 -173 -299 c-94
-164 -172 -300 -172 -300 -1 -1 -40 -4 -87 -6 l-85 -4 -207 358 -207 358 36
47 c20 26 40 58 45 70 l9 23 348 0 349 0 18 -47z m1814 24 c5 -12 25 -44 45
-70 l36 -47 -207 -358 -207 -358 -85 4 c-47 2 -86 5 -87 6 0 0 -78 136 -172
300 l-173 299 25 26 c32 35 80 116 101 174 l18 47 349 0 348 0 9 -23z m-1269
-402 c25 0 68 3 95 7 l50 8 172 -298 171 -298 -36 -76 -37 -77 -415 0 -415 0
-36 77 -37 77 172 297 171 298 50 -8 c28 -4 70 -7 95 -7z m-757 -769 c52 -48
46 -124 -13 -164 -102 -69 -218 72 -131 159 39 39 105 41 144 5z m1658 -5 c87
-87 -29 -228 -131 -159 -88 60 -50 188 57 188 36 0 50 -6 74 -29z"/>
</g>
</svg>
